<svg width="1262" height="1356" viewBox="0 0 1262 1356" fill="none" xmlns="http://www.w3.org/2000/svg">
<g clip-path="url(#clip0_507_143)">
<g filter="url(#filter0_f_507_143)">
<path d="M973.353 568.752C810.234 568.752 678 437.403 678 275.376C678 113.349 810.234 -18 973.353 -18C1136.47 -18 1268.71 113.349 1268.71 275.376C1268.71 437.403 1136.47 568.752 973.353 568.752Z" fill="#F7BBBB"/>
</g>
<path d="M795.5 694C935.504 694 1049 580.504 1049 440.5C1049 300.496 935.504 187 795.5 187C655.496 187 542 300.496 542 440.5C542 580.504 655.496 694 795.5 694Z" stroke="white" stroke-width="50"/>
<g filter="url(#filter1_f_507_143)">
<path d="M785.5 856C943.177 856 1071 729.073 1071 572.5C1071 415.927 943.177 289 785.5 289C627.823 289 500 415.927 500 572.5C500 729.073 627.823 856 785.5 856Z" fill="#FEC3C3"/>
</g>
<g filter="url(#filter2_f_507_143)">
<path d="M1008 511C1187.49 511 1333 365.493 1333 186C1333 6.50746 1187.49 -139 1008 -139C828.507 -139 683 6.50746 683 186C683 365.493 828.507 511 1008 511Z" fill="#FDF3F0"/>
</g>
</g>
<defs>
<filter id="filter0_f_507_143" x="178" y="-518" width="1590.71" height="1586.75" filterUnits="userSpaceOnUse" color-interpolation-filters="sRGB">
<feFlood flood-opacity="0" result="BackgroundImageFix"/>
<feBlend mode="normal" in="SourceGraphic" in2="BackgroundImageFix" result="shape"/>
<feGaussianBlur stdDeviation="250" result="effect1_foregroundBlur_507_143"/>
</filter>
<filter id="filter1_f_507_143" x="0" y="-211" width="1571" height="1567" filterUnits="userSpaceOnUse" color-interpolation-filters="sRGB">
<feFlood flood-opacity="0" result="BackgroundImageFix"/>
<feBlend mode="normal" in="SourceGraphic" in2="BackgroundImageFix" result="shape"/>
<feGaussianBlur stdDeviation="250" result="effect1_foregroundBlur_507_143"/>
</filter>
<filter id="filter2_f_507_143" x="560" y="-262" width="896" height="896" filterUnits="userSpaceOnUse" color-interpolation-filters="sRGB">
<feFlood flood-opacity="0" result="BackgroundImageFix"/>
<feBlend mode="normal" in="SourceGraphic" in2="BackgroundImageFix" result="shape"/>
<feGaussianBlur stdDeviation="61.5" result="effect1_foregroundBlur_507_143"/>
</filter>
<clipPath id="clip0_507_143">
<rect width="1262" height="1356" fill="white"/>
</clipPath>
</defs>
</svg>
