<svg width="396" height="78" viewBox="0 0 396 78" fill="none" xmlns="http://www.w3.org/2000/svg">
<g clip-path="url(#clip0_504_4)">
<g clip-path="url(#clip1_504_4)">
<g clip-path="url(#clip2_504_4)">
<g clip-path="url(#clip3_504_4)">
<g clip-path="url(#clip4_504_4)">
<g clip-path="url(#clip5_504_4)">
<path d="M58.0345 12.2743L64.8528 42.0454L71.7344 12.2743H80.5867L70.0483 48.79H59.3518L48.8555 12.2743H58.0345ZM108.398 18.4393H94.0443V27.2072H106.69V33.2668H94.0443V42.5934H109.293V48.79H85.4028V12.2743H109.272L108.398 18.4393ZM142.047 38.1145C142.047 40.3838 141.453 42.3896 140.266 44.132C139.079 45.8673 137.378 47.2268 135.165 48.2104C132.952 49.194 130.293 49.6857 127.188 49.6857C123.745 49.6857 120.858 49.1799 118.525 48.1682C116.2 47.1635 114.275 45.913 112.75 44.4165L117.124 39.5688C118.472 40.7421 119.965 41.6519 121.602 42.2983C123.232 42.9376 125.02 43.2573 126.966 43.2573C128.182 43.2573 129.246 43.0817 130.16 42.7304C131.073 42.3791 131.786 41.8697 132.299 41.2023C132.805 40.5349 133.058 39.7269 133.058 38.7785C133.058 37.8792 132.857 37.1239 132.457 36.5127C132.049 35.8944 131.368 35.3394 130.412 34.8476C129.457 34.3558 128.126 33.857 126.418 33.3512C123.573 32.473 121.286 31.5069 119.558 30.4531C117.823 29.3992 116.565 28.1768 115.785 26.7857C115.005 25.4017 114.615 23.7858 114.615 21.938C114.615 19.7109 115.234 17.807 116.47 16.2262C117.714 14.6454 119.379 13.437 121.465 12.601C123.552 11.7719 125.853 11.3574 128.368 11.3574C131.199 11.3574 133.693 11.7649 135.85 12.5799C138.007 13.3949 139.876 14.5576 141.457 16.0681L137.378 20.7577C136.149 19.7179 134.825 18.9486 133.405 18.4498C131.979 17.951 130.528 17.7016 129.053 17.7016C127.964 17.7016 127.005 17.8386 126.176 18.1126C125.354 18.3795 124.715 18.7765 124.258 19.3034C123.801 19.8303 123.573 20.4907 123.573 21.2846C123.573 22.0575 123.794 22.7073 124.237 23.2342C124.673 23.7612 125.435 24.2565 126.524 24.7202C127.613 25.1839 129.123 25.7248 131.055 26.3431C133.36 27.0457 135.33 27.8852 136.967 28.8618C138.611 29.8313 139.869 31.0538 140.74 32.5292C141.611 34.0045 142.047 35.8663 142.047 38.1145ZM173.652 38.1145C173.652 40.3838 173.062 42.3896 171.881 44.132C170.694 45.8673 168.994 47.2268 166.781 48.2104C164.568 49.194 161.905 49.6857 158.793 49.6857C155.35 49.6857 152.466 49.1799 150.14 48.1682C147.815 47.1635 145.886 45.913 144.355 44.4165L148.728 39.5688C150.084 40.7421 151.577 41.6519 153.207 42.2983C154.844 42.9376 156.636 43.2573 158.582 43.2573C159.797 43.2573 160.862 43.0817 161.775 42.7304C162.688 42.3791 163.398 41.8697 163.904 41.2023C164.417 40.5349 164.673 39.7269 164.673 38.7785C164.673 37.8792 164.469 37.1239 164.062 36.5127C163.661 35.8944 162.983 35.3394 162.028 34.8476C161.065 34.3558 159.734 33.857 158.034 33.3512C155.188 32.473 152.902 31.5069 151.173 30.4531C149.438 29.3992 148.18 28.1768 147.4 26.7857C146.621 25.4017 146.231 23.7858 146.231 21.938C146.231 19.7109 146.849 17.807 148.085 16.2262C149.322 14.6454 150.987 13.437 153.081 12.601C155.167 11.7719 157.468 11.3574 159.983 11.3574C162.808 11.3574 165.302 11.7649 167.466 12.5799C169.623 13.3949 171.491 14.5576 173.072 16.0681L168.994 20.7577C167.764 19.7179 166.436 18.9486 165.01 18.4498C163.591 17.951 162.144 17.7016 160.668 17.7016C159.579 17.7016 158.62 17.8386 157.791 18.1126C156.969 18.3795 156.33 18.7765 155.873 19.3034C155.417 19.8303 155.188 20.4907 155.188 21.2846C155.188 22.0575 155.406 22.7073 155.842 23.2342C156.284 23.7612 157.05 24.2565 158.139 24.7202C159.228 25.1839 160.739 25.7248 162.671 26.3431C164.968 27.0457 166.939 27.8852 168.583 28.8618C170.227 29.8313 171.484 31.0538 172.355 32.5292C173.22 34.0045 173.652 35.8663 173.652 38.1145ZM203.244 18.4393H188.88V27.2072H201.526V33.2668H188.88V42.5934H204.129V48.79H180.238V12.2743H204.108L203.244 18.4393ZM235.428 48.79H211.854V12.2743H220.495V41.9611H236.324L235.428 48.79ZM247.705 12.2743L254.534 42.0454L261.405 12.2743H270.258L259.719 48.79H249.023L238.537 12.2743H247.705ZM293.179 48.79L291.25 40.9072H280.554L278.636 48.79H269.594L280.764 12.2743H291.25L302.421 48.79H293.179ZM285.876 18.4919L281.924 34.6368H289.828L285.876 18.4919ZM322.528 12.2743H331.191V36.5654C331.191 39.0595 330.685 41.2936 329.673 43.2678C328.662 45.242 327.151 46.8052 325.142 47.9574C323.133 49.1096 320.617 49.6857 317.596 49.6857C314.561 49.6857 312.036 49.1307 310.019 48.0207C308.01 46.9176 306.506 45.3825 305.509 43.4154C304.504 41.4482 304.002 39.1649 304.002 36.5654V12.2743H312.675V33.3512C312.675 36.6321 312.973 39.1051 313.571 40.7702C314.168 42.4283 315.51 43.2573 317.596 43.2573C319.69 43.2573 321.035 42.4283 321.633 40.7702C322.23 39.1051 322.528 36.6321 322.528 33.3512V12.2743ZM361.879 48.79H338.304V12.2743H346.946V41.9611H362.775L361.879 48.79ZM394.864 18.8819H385.095V48.79H376.454V18.8819H366.2V12.2743H395.76L394.864 18.8819Z" fill="#FF0000"/>
</g>
</g>
<g clip-path="url(#clip6_504_4)">
<g clip-path="url(#clip7_504_4)">
<path d="M89.8445 66.3969C89.7381 66.2578 89.6481 66.1039 89.5744 65.9353C89.5007 65.7683 89.423 65.5661 89.3411 65.3287C89.3248 65.2878 89.2781 65.165 89.2012 64.9604C89.1226 64.7558 89.0342 64.5798 88.9359 64.4324C88.4203 64.5061 87.9987 64.5429 87.6713 64.5429C87.4912 64.5429 87.2931 64.5364 87.077 64.5233C86.8593 64.5118 86.6972 64.5061 86.5908 64.5061C86.1815 64.4734 85.8541 64.457 85.6086 64.457C85.5103 64.5879 85.4268 64.7271 85.3581 64.8744C85.2877 65.0218 85.1993 65.2428 85.0929 65.5375C84.9455 65.9631 84.8187 66.266 84.7123 66.446C84.6386 66.5688 84.4953 66.6302 84.2825 66.6302C84.1024 66.6302 83.9371 66.5909 83.7865 66.5123C83.6342 66.4354 83.5581 66.3274 83.5581 66.1882C83.6236 65.8772 83.7284 65.5473 83.8724 65.1986C84.0149 64.8515 84.2211 64.3874 84.4912 63.8062L84.9824 62.603C85.2525 61.9154 85.5005 61.326 85.7264 60.8349C85.9507 60.3438 86.247 59.7626 86.6154 59.0914C86.6645 58.9932 86.7463 58.9089 86.8609 58.8385C86.9755 58.7697 87.1024 58.7354 87.2416 58.7354C87.3971 58.7354 87.51 58.7452 87.5804 58.7648C87.6492 58.7861 87.704 58.8188 87.745 58.863C87.7859 58.9089 87.8473 59.0014 87.9291 59.1405C88.2074 59.5744 88.4473 60.0205 88.6486 60.4789C88.8484 60.9372 89.1037 61.5716 89.4148 62.382L89.6726 63.0327C89.9018 63.6221 90.1007 64.1148 90.2694 64.511C90.4363 64.9088 90.6221 65.2714 90.8268 65.5989C90.9578 65.8117 91.0232 65.959 91.0232 66.0409C91.0232 66.2373 90.9643 66.3863 90.8464 66.4878C90.7269 66.5909 90.573 66.6425 90.3848 66.6425C90.1474 66.6425 89.9673 66.5606 89.8445 66.3969ZM88.5799 63.4256C88.4489 63.1473 88.2606 62.6644 88.0151 61.9768C87.7613 61.2401 87.5076 60.6548 87.2538 60.221C87.0983 60.6139 86.8691 61.1214 86.5663 61.7435C86.3616 62.1282 86.1283 62.6848 85.8664 63.4133C86.3903 63.4788 86.9551 63.5116 87.5608 63.5116C87.9946 63.5116 88.3343 63.4829 88.5799 63.4256ZM94.1173 59.4229C94.1173 59.071 94.3752 58.895 94.8909 58.895C95.1119 58.895 95.5334 58.9032 96.1555 58.9195C96.8431 58.9523 97.3629 58.9686 97.7148 58.9686C98.0013 58.9686 98.3492 58.9523 98.7585 58.9195C99.0368 58.9032 99.212 58.895 99.284 58.895C99.7342 58.9113 100.116 58.9932 100.428 59.1405C100.518 59.1815 100.592 59.2306 100.649 59.2879C100.707 59.3452 100.735 59.4393 100.735 59.5703C100.735 59.7503 100.678 59.9034 100.563 60.0295C100.447 60.1572 100.307 60.221 100.143 60.221C99.965 60.221 99.7039 60.1965 99.3601 60.1473C99.0573 60.09 98.7912 60.0614 98.562 60.0614C98.341 60.0614 98.1732 60.0655 98.0586 60.0737C98.0341 60.3438 98.0218 60.9904 98.0218 62.0136C98.0218 63.2333 98.0586 64.4693 98.1323 65.7216L98.1569 66.0777C98.1569 66.4133 97.9645 66.5811 97.5798 66.5811C97.2769 66.5811 97.0723 66.5091 96.9659 66.365C96.8595 66.2226 96.8063 66.004 96.8063 65.7094C96.8063 65.1282 96.7899 64.4038 96.7571 63.5361C96.7244 62.8158 96.708 62.3042 96.708 62.0013C96.708 61.7967 96.7326 61.1705 96.7817 60.1228L95.3452 60.1351C94.8868 60.1351 94.5675 60.0917 94.3875 60.0049C94.2074 59.9198 94.1173 59.7258 94.1173 59.4229ZM105.73 63.3274C106.017 63.8103 106.305 64.2376 106.597 64.6092C106.887 64.9825 107.269 65.4392 107.744 65.9795C107.801 66.0368 107.83 66.1023 107.83 66.1759C107.83 66.2905 107.767 66.3887 107.641 66.4706C107.513 66.5525 107.359 66.5934 107.179 66.5934C106.925 66.5934 106.651 66.487 106.356 66.2742C106.094 66.0859 105.861 65.8362 105.656 65.5252C105.452 65.2141 105.214 64.809 104.944 64.3096C104.731 63.9249 104.605 63.6998 104.564 63.6343C104.244 63.7653 103.745 63.8472 103.066 63.8799C103.066 64.1582 103.09 64.5347 103.139 65.0095C103.188 65.5006 103.213 65.8567 103.213 66.0777C103.213 66.225 103.142 66.3478 102.999 66.446C102.855 66.5443 102.693 66.5934 102.513 66.5934C102.3 66.5934 102.137 66.5074 102.022 66.3355C101.907 66.1063 101.834 65.8321 101.801 65.5129C101.768 65.1937 101.752 64.813 101.752 64.371C101.752 63.9045 101.781 63.3765 101.838 62.7871C101.887 62.1323 101.912 61.6494 101.912 61.3383C101.912 61.0846 101.887 60.7449 101.838 60.3192C101.83 60.2456 101.817 60.1187 101.801 59.9386C101.785 59.7585 101.776 59.5948 101.776 59.4475C101.776 59.3329 101.82 59.2322 101.907 59.1454C101.992 59.0603 102.083 59.0014 102.182 58.9686C102.845 58.8622 103.491 58.809 104.122 58.809C105.194 58.809 106.082 59.0096 106.786 59.4107C107.49 59.8117 107.842 60.4216 107.842 61.2401C107.842 61.4938 107.787 61.737 107.677 61.9694C107.566 62.2035 107.416 62.3983 107.228 62.5539C106.729 62.9386 106.229 63.1964 105.73 63.3274ZM106.553 61.2033C106.553 60.8104 106.344 60.4887 105.926 60.2382C105.509 59.9894 104.916 59.8649 104.146 59.8649C103.802 59.8649 103.463 59.9059 103.127 59.9877L103.139 60.6139C103.139 60.9741 103.127 61.326 103.103 61.6698C103.078 62.0136 103.066 62.382 103.066 62.7749C103.205 62.7421 103.352 62.7192 103.508 62.7061C103.663 62.6947 103.766 62.6848 103.815 62.6766C104.175 62.6439 104.453 62.603 104.65 62.5539C105.018 62.4393 105.323 62.3345 105.566 62.2395C105.806 62.1462 106.031 62.0112 106.241 61.8344C106.449 61.6592 106.553 61.4488 106.553 61.2033ZM114.767 66.3969C114.66 66.2578 114.57 66.1039 114.497 65.9353C114.423 65.7683 114.345 65.5661 114.263 65.3287C114.247 65.2878 114.2 65.165 114.123 64.9604C114.045 64.7558 113.956 64.5798 113.858 64.4324C113.342 64.5061 112.921 64.5429 112.594 64.5429C112.413 64.5429 112.215 64.5364 111.999 64.5233C111.782 64.5118 111.619 64.5061 111.513 64.5061C111.104 64.4734 110.776 64.457 110.531 64.457C110.433 64.5879 110.349 64.7271 110.28 64.8744C110.21 65.0218 110.122 65.2428 110.015 65.5375C109.868 65.9631 109.741 66.266 109.634 66.446C109.561 66.5688 109.418 66.6302 109.205 66.6302C109.025 66.6302 108.859 66.5909 108.709 66.5123C108.556 66.4354 108.48 66.3274 108.48 66.1882C108.546 65.8772 108.651 65.5473 108.795 65.1986C108.937 64.8515 109.143 64.3874 109.413 63.8062L109.905 62.603C110.175 61.9154 110.423 61.326 110.649 60.8349C110.873 60.3438 111.169 59.7626 111.538 59.0914C111.587 58.9932 111.669 58.9089 111.783 58.8385C111.898 58.7697 112.025 58.7354 112.164 58.7354C112.319 58.7354 112.432 58.7452 112.503 58.7648C112.571 58.7861 112.626 58.8188 112.667 58.863C112.708 58.9089 112.77 59.0014 112.851 59.1405C113.13 59.5744 113.37 60.0205 113.571 60.4789C113.771 60.9372 114.026 61.5716 114.337 62.382L114.595 63.0327C114.824 63.6221 115.023 64.1148 115.192 64.511C115.359 64.9088 115.544 65.2714 115.749 65.5989C115.88 65.8117 115.945 65.959 115.945 66.0409C115.945 66.2373 115.887 66.3863 115.769 66.4878C115.649 66.5909 115.495 66.6425 115.307 66.6425C115.07 66.6425 114.89 66.5606 114.767 66.3969ZM113.502 63.4256C113.371 63.1473 113.183 62.6644 112.937 61.9768C112.684 61.2401 112.43 60.6548 112.176 60.221C112.021 60.6139 111.791 61.1214 111.488 61.7435C111.284 62.1282 111.051 62.6848 110.789 63.4133C111.313 63.4788 111.877 63.5116 112.483 63.5116C112.917 63.5116 113.257 63.4829 113.502 63.4256ZM122.158 59.6808C122.158 59.4434 122.213 59.2363 122.323 59.0595C122.434 58.8843 122.6 58.7967 122.821 58.7967C123.01 58.7967 123.177 58.8336 123.325 58.9072C123.472 58.9809 123.546 59.1037 123.546 59.2756C123.546 59.6112 123.529 60.0819 123.497 60.6876C123.464 61.2769 123.447 61.7149 123.447 62.0013C123.447 62.4515 123.464 63.0532 123.497 63.8062C123.529 64.5266 123.546 65.0545 123.546 65.3901C123.546 65.6602 123.542 65.8608 123.533 65.9918C123.533 66.1227 123.461 66.2512 123.317 66.3773C123.175 66.505 122.956 66.5688 122.662 66.5688C122.506 66.5688 122.373 66.5418 122.261 66.4878C122.152 66.4354 122.076 66.3765 122.035 66.311C121.651 65.8444 121.09 65.0504 120.353 63.929C119.527 62.6766 118.851 61.7189 118.327 61.0559C118.393 61.6453 118.426 62.3656 118.426 63.2169C118.426 63.5934 118.419 64.0821 118.406 64.6829C118.395 65.2853 118.377 65.6807 118.352 65.869C118.319 66.1063 118.247 66.2881 118.136 66.4141C118.026 66.5418 117.853 66.6057 117.615 66.6057C117.435 66.6057 117.302 66.5541 117.215 66.451C117.13 66.3495 117.079 66.1718 117.063 65.9181C117.055 65.5825 117.075 65.0791 117.124 64.4079C117.132 64.3015 117.145 64.1173 117.161 63.8554C117.177 63.5934 117.186 63.3601 117.186 63.1555C117.186 62.5907 117.157 61.944 117.1 61.2155C117.051 60.4134 117.026 59.8199 117.026 59.4352C117.026 59.2388 117.097 59.0873 117.24 58.9809C117.384 58.8745 117.55 58.8213 117.738 58.8213C117.902 58.8213 118.074 58.8622 118.254 58.9441C118.958 59.8281 119.911 61.146 121.115 62.8977L122.269 64.6657C122.277 64.5347 122.281 64.3506 122.281 64.1132C122.281 63.6957 122.273 63.2455 122.256 62.7626C122.24 62.2797 122.228 61.9522 122.22 61.7803C122.179 60.9864 122.158 60.2865 122.158 59.6808ZM130.827 64.3588C130.827 64.7435 130.738 65.0725 130.561 65.3459C130.386 65.621 130.098 65.8731 129.697 66.1023C129.427 66.266 129.112 66.3887 128.752 66.4706C128.391 66.5525 128.027 66.5934 127.659 66.5934C127.282 66.5934 126.816 66.4706 126.259 66.225C125.858 66.0286 125.54 65.7953 125.306 65.5252C125.074 65.2551 124.958 64.9604 124.958 64.6412C124.958 64.4201 125.007 64.2581 125.105 64.1549C125.203 64.0534 125.363 64.0027 125.584 64.0027C125.698 64.0027 125.817 64.0493 125.94 64.1427C126.063 64.2376 126.136 64.3301 126.161 64.4201C126.276 64.7558 126.476 65.0111 126.763 65.1863C127.049 65.3631 127.405 65.4515 127.831 65.4515C128.322 65.4515 128.733 65.3615 129.063 65.1814C129.396 65.0013 129.562 64.7598 129.562 64.457C129.562 64.1623 129.382 63.9004 129.022 63.6712C128.662 63.442 128.293 63.2824 127.917 63.1923C127.376 63.045 126.898 62.869 126.48 62.6644C126.046 62.4515 125.723 62.1896 125.51 61.8786C125.297 61.5675 125.191 61.2401 125.191 60.8963C125.191 60.5771 125.301 60.2513 125.522 59.919C125.743 59.5883 126.005 59.3493 126.308 59.2019C126.472 59.1201 126.752 59.0317 127.148 58.9367C127.546 58.8434 127.835 58.7967 128.015 58.7967C128.252 58.7967 128.514 58.8254 128.801 58.8827C129.087 58.94 129.32 59.0218 129.501 59.1283C129.861 59.3329 130.127 59.5171 130.299 59.6808C130.471 59.8445 130.556 60.0491 130.556 60.2947C130.556 60.442 130.501 60.573 130.39 60.6876C130.28 60.8022 130.09 60.8595 129.82 60.8595C129.754 60.8595 129.689 60.8308 129.623 60.7735C129.558 60.7162 129.476 60.6303 129.378 60.5157C129.247 60.3438 129.12 60.2292 128.997 60.1719C128.874 60.131 128.696 60.086 128.462 60.0368C128.229 59.9877 128.023 59.9632 127.843 59.9632C127.647 59.9632 127.442 60.0041 127.229 60.086C127.016 60.1678 126.838 60.284 126.694 60.4347C126.551 60.5869 126.48 60.7613 126.48 60.9577C126.48 61.1214 126.555 61.2622 126.706 61.3801C126.858 61.4996 127.041 61.5962 127.254 61.6698C127.499 61.7681 127.765 61.854 128.052 61.9277C128.428 62.0423 128.737 62.1462 128.978 62.2395C129.22 62.3345 129.456 62.4515 129.685 62.5907C130.086 62.8281 130.376 63.0712 130.556 63.32C130.737 63.5705 130.827 63.9167 130.827 64.3588ZM135.244 63.8062C134.925 63.8062 134.657 63.7956 134.441 63.7743C134.224 63.7547 133.939 63.7203 133.587 63.6712L133.574 64.9604C133.566 65.1814 133.562 65.4965 133.562 65.9058C133.562 66.1186 133.503 66.284 133.385 66.4018C133.266 66.5214 133.132 66.5811 132.985 66.5811C132.715 66.5811 132.514 66.5459 132.383 66.4755C132.253 66.4068 132.187 66.2823 132.187 66.1023C132.187 65.8649 132.208 65.5293 132.248 65.0954C132.338 64.1623 132.383 63.2046 132.383 62.2224C132.383 61.3056 132.355 60.442 132.298 59.6317C132.306 59.5171 132.365 59.3861 132.477 59.2388C132.586 59.0914 132.727 59.0096 132.899 58.9932C133.087 58.9932 133.386 58.9605 133.795 58.895C134.221 58.8295 134.544 58.7967 134.765 58.7967C135.437 58.7967 135.959 58.8622 136.332 58.9932C136.704 59.1242 137.078 59.3411 137.454 59.6439C137.864 60.2824 138.068 60.7326 138.068 60.9945C138.068 61.543 137.958 62.03 137.737 62.4556C137.516 62.8813 137.192 63.2128 136.767 63.4502C136.341 63.6875 135.834 63.8062 135.244 63.8062ZM134.962 59.8404C134.7 59.8404 134.473 59.8543 134.282 59.8821C134.089 59.9116 133.857 59.9591 133.587 60.0246C133.619 60.7776 133.636 61.326 133.636 61.6698C133.636 62.0218 133.624 62.3165 133.599 62.5539C133.951 62.6275 134.229 62.6742 134.434 62.6938C134.639 62.7151 134.868 62.7258 135.122 62.7258C135.727 62.7258 136.155 62.5678 136.406 62.2518C136.655 61.9375 136.779 61.5716 136.779 61.1542C136.779 61.0314 136.742 60.8799 136.669 60.6999C136.595 60.5198 136.529 60.4011 136.472 60.3438C136.251 60.1473 136.037 60.0139 135.829 59.9435C135.619 59.8748 135.33 59.8404 134.962 59.8404ZM144.821 66.3969C144.715 66.2578 144.625 66.1039 144.551 65.9353C144.477 65.7683 144.4 65.5661 144.318 65.3287C144.302 65.2878 144.255 65.165 144.178 64.9604C144.099 64.7558 144.011 64.5798 143.913 64.4324C143.397 64.5061 142.975 64.5429 142.648 64.5429C142.468 64.5429 142.27 64.5364 142.054 64.5233C141.836 64.5118 141.674 64.5061 141.568 64.5061C141.158 64.4734 140.831 64.457 140.585 64.457C140.487 64.5879 140.404 64.7271 140.335 64.8744C140.264 65.0218 140.176 65.2428 140.07 65.5375C139.922 65.9631 139.795 66.266 139.689 66.446C139.615 66.5688 139.472 66.6302 139.259 66.6302C139.079 66.6302 138.914 66.5909 138.763 66.5123C138.611 66.4354 138.535 66.3274 138.535 66.1882C138.6 65.8772 138.705 65.5473 138.849 65.1986C138.992 64.8515 139.198 64.3874 139.468 63.8062L139.959 62.603C140.229 61.9154 140.477 61.326 140.703 60.8349C140.927 60.3438 141.224 59.7626 141.592 59.0914C141.641 58.9932 141.723 58.9089 141.838 58.8385C141.952 58.7697 142.079 58.7354 142.218 58.7354C142.374 58.7354 142.487 58.7452 142.557 58.7648C142.626 58.7861 142.681 58.8188 142.722 58.863C142.763 58.9089 142.824 59.0014 142.906 59.1405C143.184 59.5744 143.424 60.0205 143.625 60.4789C143.825 60.9372 144.08 61.5716 144.392 62.382L144.649 63.0327C144.879 63.6221 145.077 64.1148 145.246 64.511C145.413 64.9088 145.599 65.2714 145.804 65.5989C145.935 65.8117 146 65.959 146 66.0409C146 66.2373 145.941 66.3863 145.823 66.4878C145.704 66.5909 145.55 66.6425 145.362 66.6425C145.124 66.6425 144.944 66.5606 144.821 66.3969ZM143.557 63.4256C143.426 63.1473 143.237 62.6644 142.992 61.9768C142.738 61.2401 142.484 60.6548 142.231 60.221C142.075 60.6139 141.846 61.1214 141.543 61.7435C141.338 62.1282 141.105 62.6848 140.843 63.4133C141.367 63.4788 141.932 63.5116 142.538 63.5116C142.971 63.5116 143.311 63.4829 143.557 63.4256ZM151.059 63.3274C151.345 63.8103 151.633 64.2376 151.923 64.6092C152.214 64.9825 152.597 65.4392 153.072 65.9795C153.13 66.0368 153.158 66.1023 153.158 66.1759C153.158 66.2905 153.094 66.3887 152.967 66.4706C152.841 66.5525 152.687 66.5934 152.507 66.5934C152.254 66.5934 151.979 66.487 151.685 66.2742C151.423 66.0859 151.19 65.8362 150.985 65.5252C150.78 65.2141 150.543 64.809 150.273 64.3096C150.06 63.9249 149.933 63.6998 149.892 63.6343C149.573 63.7653 149.074 63.8472 148.394 63.8799C148.394 64.1582 148.419 64.5347 148.468 65.0095C148.517 65.5006 148.542 65.8567 148.542 66.0777C148.542 66.225 148.47 66.3478 148.325 66.446C148.183 66.5443 148.022 66.5934 147.842 66.5934C147.629 66.5934 147.465 66.5074 147.351 66.3355C147.236 66.1063 147.162 65.8321 147.13 65.5129C147.097 65.1937 147.08 64.813 147.08 64.371C147.08 63.9045 147.109 63.3765 147.166 62.7871C147.216 62.1323 147.24 61.6494 147.24 61.3383C147.24 61.0846 147.216 60.7449 147.166 60.3192C147.158 60.2456 147.146 60.1187 147.13 59.9386C147.113 59.7585 147.105 59.5948 147.105 59.4475C147.105 59.3329 147.148 59.2322 147.233 59.1454C147.319 59.0603 147.412 59.0014 147.51 58.9686C148.173 58.8622 148.82 58.809 149.45 58.809C150.522 58.809 151.411 59.0096 152.115 59.4107C152.818 59.8117 153.17 60.4216 153.17 61.2401C153.17 61.4938 153.115 61.737 153.003 61.9694C152.894 62.2035 152.745 62.3983 152.557 62.5539C152.057 62.9386 151.558 63.1964 151.059 63.3274ZM151.881 61.2033C151.881 60.8104 151.673 60.4887 151.255 60.2382C150.838 59.9894 150.244 59.8649 149.475 59.8649C149.131 59.8649 148.791 59.9059 148.456 59.9877L148.468 60.6139C148.468 60.9741 148.456 61.326 148.431 61.6698C148.407 62.0136 148.394 62.382 148.394 62.7749C148.533 62.7421 148.681 62.7192 148.836 62.7061C148.992 62.6947 149.094 62.6848 149.143 62.6766C149.503 62.6439 149.782 62.603 149.978 62.5539C150.346 62.4393 150.651 62.3345 150.892 62.2395C151.134 62.1462 151.359 62.0112 151.567 61.8344C151.776 61.6592 151.881 61.4488 151.881 61.2033ZM159.531 64.9113C159.686 64.9113 159.802 64.9702 159.879 65.0881C159.958 65.2076 159.997 65.3369 159.997 65.4761C159.997 65.648 159.97 65.7683 159.916 65.837C159.864 65.9074 159.764 65.9795 159.616 66.0531C159.273 66.2169 158.847 66.3478 158.34 66.446C157.832 66.5443 157.288 66.5934 156.707 66.5934C155.978 66.5934 155.444 66.4706 155.103 66.225C154.764 65.9795 154.555 65.6823 154.477 65.3336C154.4 64.9866 154.361 64.5307 154.361 63.9659C154.361 63.3601 154.386 62.7642 154.435 62.1782C154.484 61.5937 154.57 60.8472 154.693 59.9386C154.75 59.5457 154.906 59.2609 155.16 59.0841C155.413 58.9089 155.692 58.8213 155.994 58.8213C156.248 58.8213 156.662 58.8131 157.235 58.7967L158.303 58.7845C158.745 58.7845 159.064 58.7967 159.26 58.8213C159.506 58.8704 159.688 58.9253 159.806 58.9858C159.925 59.048 159.985 59.1528 159.985 59.3001C159.985 59.4639 159.929 59.6235 159.818 59.779C159.708 59.9345 159.543 60.0123 159.322 60.0123C159.068 60.0123 158.704 59.9959 158.229 59.9632C157.754 59.9304 157.398 59.9141 157.161 59.9141C156.956 59.9141 156.756 59.9263 156.559 59.9509C156.33 59.9673 156.166 59.9959 156.068 60.0368C155.97 60.0778 155.913 60.1473 155.896 60.2456C155.782 61.0887 155.724 61.7108 155.724 62.1118C155.913 62.1364 156.097 62.1487 156.277 62.1487C156.506 62.1487 156.752 62.1364 157.014 62.1118C157.275 62.0873 157.443 62.0709 157.517 62.0627C157.951 62.0218 158.323 62.0013 158.634 62.0013C158.814 62.0013 158.951 62.0341 159.044 62.0996C159.139 62.1651 159.187 62.2551 159.187 62.3697C159.187 62.5498 159.139 62.6889 159.044 62.7871C158.951 62.8854 158.786 62.959 158.548 63.0082C158.262 63.0655 157.907 63.1105 157.485 63.1432C157.064 63.176 156.653 63.1923 156.252 63.1923C156.113 63.1923 155.921 63.1841 155.675 63.1678C155.651 63.6671 155.638 64.1296 155.638 64.5552C155.638 65.1364 156.023 65.427 156.793 65.427C157.202 65.427 157.541 65.3983 157.812 65.341C158.082 65.2837 158.393 65.2019 158.745 65.0954C159.072 64.9727 159.334 64.9113 159.531 64.9113ZM166.404 59.6808C166.404 59.4434 166.46 59.2363 166.571 59.0595C166.681 58.8843 166.846 58.7967 167.067 58.7967C167.255 58.7967 167.423 58.8336 167.57 58.9072C167.718 58.9809 167.791 59.1037 167.791 59.2756C167.791 59.6112 167.775 60.0819 167.742 60.6876C167.709 61.2769 167.693 61.7149 167.693 62.0013C167.693 62.4515 167.709 63.0532 167.742 63.8062C167.775 64.5266 167.791 65.0545 167.791 65.3901C167.791 65.6602 167.787 65.8608 167.779 65.9918C167.779 66.1227 167.708 66.2512 167.565 66.3773C167.421 66.505 167.202 66.5688 166.907 66.5688C166.752 66.5688 166.619 66.5418 166.509 66.4878C166.398 66.4354 166.322 66.3765 166.281 66.311C165.896 65.8444 165.336 65.0504 164.599 63.929C163.772 62.6766 163.097 61.7189 162.573 61.0559C162.639 61.6453 162.671 62.3656 162.671 63.2169C162.671 63.5934 162.666 64.0821 162.654 64.6829C162.641 65.2853 162.622 65.6807 162.598 65.869C162.565 66.1063 162.494 66.2881 162.384 66.4141C162.273 66.5418 162.098 66.6057 161.861 66.6057C161.681 66.6057 161.548 66.5541 161.463 66.451C161.376 66.3495 161.325 66.1718 161.308 65.9181C161.3 65.5825 161.321 65.0791 161.37 64.4079C161.378 64.3015 161.39 64.1173 161.407 63.8554C161.423 63.5934 161.431 63.3601 161.431 63.1555C161.431 62.5907 161.403 61.944 161.345 61.2155C161.296 60.4134 161.272 59.8199 161.272 59.4352C161.272 59.2388 161.344 59.0873 161.488 58.9809C161.63 58.8745 161.795 58.8213 161.984 58.8213C162.147 58.8213 162.319 58.8622 162.499 58.9441C163.203 59.8281 164.157 61.146 165.36 62.8977L166.514 64.6657C166.523 64.5347 166.527 64.3506 166.527 64.1132C166.527 63.6957 166.518 63.2455 166.502 62.7626C166.486 62.2797 166.473 61.9522 166.465 61.7803C166.424 60.9864 166.404 60.2865 166.404 59.6808ZM168.81 59.4229C168.81 59.071 169.068 58.895 169.584 58.895C169.805 58.895 170.226 58.9032 170.849 58.9195C171.536 58.9523 172.056 58.9686 172.408 58.9686C172.694 58.9686 173.042 58.9523 173.452 58.9195C173.73 58.9032 173.906 58.895 173.979 58.895C174.43 58.9113 174.81 58.9932 175.121 59.1405C175.211 59.1815 175.285 59.2306 175.342 59.2879C175.4 59.3452 175.428 59.4393 175.428 59.5703C175.428 59.7503 175.371 59.9034 175.256 60.0295C175.142 60.1572 175.003 60.221 174.839 60.221C174.659 60.221 174.397 60.1965 174.053 60.1473C173.75 60.09 173.484 60.0614 173.255 60.0614C173.034 60.0614 172.866 60.0655 172.752 60.0737C172.727 60.3438 172.715 60.9904 172.715 62.0136C172.715 63.2333 172.752 64.4693 172.825 65.7216L172.85 66.0777C172.85 66.4133 172.658 66.5811 172.273 66.5811C171.97 66.5811 171.765 66.5091 171.659 66.365C171.553 66.2226 171.499 66.004 171.499 65.7094C171.499 65.1282 171.483 64.4038 171.45 63.5361C171.417 62.8158 171.401 62.3042 171.401 62.0013C171.401 61.7967 171.426 61.1705 171.475 60.1228L170.038 60.1351C169.58 60.1351 169.261 60.0917 169.081 60.0049C168.9 59.9198 168.81 59.7258 168.81 59.4229ZM184.011 62.4311C184.608 62.5048 185.052 62.6947 185.342 63.0008C185.633 63.3086 185.779 63.6875 185.779 64.1377C185.779 64.5879 185.613 65.0136 185.28 65.4147C184.95 65.8158 184.526 66.1268 184.011 66.3478C183.782 66.4379 183.48 66.5033 183.107 66.5443C182.735 66.5852 182.353 66.6057 181.96 66.6057C181.305 66.6057 180.634 66.5443 179.947 66.4215C179.824 66.3969 179.695 66.3355 179.559 66.2373C179.424 66.1391 179.357 65.9958 179.357 65.8076C179.349 65.0545 179.32 64.0068 179.271 62.6644L179.259 61.9891C179.226 60.9413 179.21 60.1187 179.21 59.5212C179.21 59.4147 179.273 59.2895 179.399 59.1454C179.527 59.003 179.681 58.9236 179.861 58.9072C179.967 58.9072 180.069 58.9032 180.168 58.895C181.093 58.8049 181.711 58.7599 182.022 58.7599C182.636 58.7599 183.177 58.8188 183.647 58.9367C184.119 59.0562 184.51 59.2715 184.821 59.5825C184.936 59.7135 185.03 59.8789 185.104 60.0786C185.177 60.2799 185.214 60.4748 185.214 60.663C185.222 61.0641 185.117 61.4325 184.9 61.7681C184.684 62.1037 184.387 62.3247 184.011 62.4311ZM182.095 59.8036C181.817 59.8036 181.528 59.8199 181.229 59.8527C180.931 59.8854 180.679 59.9263 180.475 59.9754L180.548 62.296L180.99 62.2837C181.702 62.2101 182.226 62.1487 182.562 62.0996C182.775 62.0505 182.983 61.9539 183.188 61.8098C183.393 61.6674 183.562 61.5159 183.696 61.3555C183.832 61.1967 183.9 61.0764 183.9 60.9945C183.9 60.8718 183.876 60.7465 183.827 60.6188C183.777 60.4928 183.724 60.4011 183.667 60.3438C183.446 60.131 183.221 59.9877 182.992 59.9141C182.762 59.8404 182.464 59.8036 182.095 59.8036ZM180.585 65.5252C181.003 65.5825 181.4 65.6111 181.776 65.6111C182.603 65.6111 183.255 65.5023 183.733 65.2845C184.213 65.0684 184.453 64.6534 184.453 64.0395C184.453 63.794 184.269 63.5893 183.9 63.4256C183.532 63.2619 183.135 63.1801 182.709 63.1801C182.423 63.1801 182.059 63.2128 181.617 63.2783C181.265 63.3274 180.921 63.3601 180.585 63.3765C180.602 63.8676 180.61 64.1787 180.61 64.3096C180.61 64.5634 180.606 64.7558 180.597 64.8867L180.585 65.5252ZM187.765 58.7845C187.921 58.7845 188.063 58.8254 188.19 58.9072C188.316 58.9891 188.392 59.1323 188.416 59.337C188.514 59.9836 188.578 60.6278 188.608 61.2696C188.636 61.9129 188.649 62.6398 188.649 63.4502C188.649 63.794 188.621 64.4201 188.564 65.3287C188.924 65.3615 189.202 65.3778 189.398 65.3778C189.538 65.3778 189.853 65.3574 190.344 65.3165C190.63 65.2755 190.88 65.2551 191.093 65.2551C191.289 65.2551 191.469 65.2731 191.633 65.3091C191.797 65.3467 191.965 65.4065 192.136 65.4883C192.308 65.5866 192.394 65.738 192.394 65.9426C192.394 66.1063 192.344 66.2537 192.242 66.3847C192.139 66.5156 192.018 66.5811 191.879 66.5811C191.78 66.5811 191.625 66.5647 191.412 66.532C191.027 66.4747 190.659 66.446 190.307 66.446C190.192 66.446 190.064 66.4518 189.921 66.4632C189.777 66.4763 189.673 66.4829 189.607 66.4829C189.411 66.5074 189.214 66.5197 189.018 66.5197C188.617 66.5197 188.257 66.4993 187.937 66.4583C187.774 66.442 187.61 66.3781 187.446 66.2668C187.282 66.1571 187.201 65.9958 187.201 65.783C187.201 65.6602 187.217 65.3451 187.25 64.8376C187.307 63.9945 187.336 63.3519 187.336 62.9099C187.336 62.5661 187.319 62.206 187.287 61.8295C187.254 61.4529 187.233 61.2155 187.225 61.1173C187.152 60.4216 187.115 59.8486 187.115 59.3984C187.115 59.1856 187.166 59.03 187.269 58.9318C187.371 58.8336 187.536 58.7845 187.765 58.7845ZM196.716 58.7722C197.265 58.7722 197.764 58.8393 198.214 58.9735C198.664 59.1094 199.033 59.3083 199.319 59.5703C199.835 60.0368 200.197 60.546 200.407 61.0977C200.615 61.651 200.719 62.3574 200.719 63.2169C200.719 63.397 200.697 63.5607 200.653 63.708C200.607 63.8554 200.535 64.0436 200.437 64.2728C200.314 64.5266 200.24 64.7271 200.215 64.8744C200.052 65.1609 199.784 65.4351 199.413 65.6971C199.039 65.959 198.636 66.1718 198.202 66.3355C197.768 66.4993 197.387 66.5811 197.06 66.5811C195.48 66.5811 194.355 66.0409 193.684 64.9604C193.495 64.6575 193.35 64.3424 193.249 64.015C193.146 63.6875 193.094 63.3683 193.094 63.0573C193.094 62.2224 193.244 61.4955 193.544 60.8767C193.841 60.2595 194.256 59.779 194.789 59.4352C195.108 59.2469 195.442 59.089 195.79 58.9613C196.138 58.8352 196.446 58.7722 196.716 58.7722ZM194.371 63.0941C194.371 63.5361 194.472 63.9004 194.673 64.1869C194.873 64.4734 195.181 64.7844 195.599 65.12C195.943 65.251 196.176 65.3345 196.299 65.3705C196.422 65.4081 196.561 65.427 196.716 65.427C197.543 65.427 198.202 65.2019 198.693 64.7517C199.184 64.3015 199.43 63.6835 199.43 62.8977C199.43 62.2756 199.36 61.7844 199.221 61.4243C199.082 61.0641 198.832 60.7408 198.472 60.4543C198.284 60.2988 198.045 60.1842 197.755 60.1105C197.464 60.0368 197.15 60 196.814 60C196.307 60 195.869 60.149 195.501 60.4469C195.132 60.7465 194.852 61.1337 194.661 61.6084C194.468 62.0832 194.371 62.5784 194.371 63.0941ZM205.618 58.7722C206.166 58.7722 206.666 58.8393 207.116 58.9735C207.566 59.1094 207.934 59.3083 208.221 59.5703C208.737 60.0368 209.098 60.546 209.306 61.0977C209.516 61.651 209.621 62.3574 209.621 63.2169C209.621 63.397 209.598 63.5607 209.552 63.708C209.508 63.8554 209.436 64.0436 209.338 64.2728C209.215 64.5266 209.142 64.7271 209.117 64.8744C208.953 65.1609 208.685 65.4351 208.312 65.6971C207.94 65.959 207.537 66.1718 207.104 66.3355C206.67 66.4993 206.289 66.5811 205.962 66.5811C204.382 66.5811 203.256 66.0409 202.585 64.9604C202.397 64.6575 202.251 64.3424 202.148 64.015C202.047 63.6875 201.996 63.3683 201.996 63.0573C201.996 62.2224 202.145 61.4955 202.443 60.8767C202.742 60.2595 203.158 59.779 203.69 59.4352C204.009 59.2469 204.343 59.089 204.69 58.9613C205.038 58.8352 205.348 58.7722 205.618 58.7722ZM203.273 63.0941C203.273 63.5361 203.373 63.9004 203.572 64.1869C203.774 64.4734 204.083 64.7844 204.501 65.12C204.844 65.251 205.078 65.3345 205.2 65.3705C205.323 65.4081 205.462 65.427 205.618 65.427C206.445 65.427 207.104 65.2019 207.595 64.7517C208.086 64.3015 208.331 63.6835 208.331 62.8977C208.331 62.2756 208.262 61.7844 208.123 61.4243C207.983 61.0641 207.734 60.7408 207.374 60.4543C207.185 60.2988 206.946 60.1842 206.654 60.1105C206.364 60.0368 206.052 60 205.716 60C205.209 60 204.771 60.149 204.402 60.4469C204.034 60.7465 203.753 61.1337 203.56 61.6084C203.369 62.0832 203.273 62.5784 203.273 63.0941ZM212.899 58.7967C214.012 58.7967 214.894 58.9498 215.544 59.2559C216.195 59.5637 216.689 59.9059 217.024 60.2824C217.294 60.5934 217.515 60.9512 217.687 61.3555C217.859 61.7615 217.945 62.2469 217.945 62.8117C217.945 63.2292 217.851 63.6646 217.663 64.1181C217.475 64.5732 217.229 64.9399 216.926 65.2182C216.607 65.5211 216.306 65.7667 216.022 65.9549C215.741 66.1432 215.36 66.2963 214.881 66.4141C214.403 66.5336 213.795 66.5934 213.058 66.5934C212.502 66.5934 211.998 66.5295 211.548 66.4018C211.098 66.2758 210.873 66.0613 210.873 65.7585C210.873 65.6357 210.928 65.5391 211.037 65.4687C211.149 65.3999 211.27 65.3656 211.401 65.3656C211.475 65.3656 211.524 65.3697 211.548 65.3778C211.606 64.8376 211.634 64.2646 211.634 63.6589C211.634 62.9795 211.618 62.4163 211.585 61.9694C211.552 61.5241 211.507 61.0805 211.45 60.6385C211.442 60.5812 211.423 60.4216 211.394 60.1596C211.366 59.8977 211.352 59.6317 211.352 59.3615C211.352 59.1896 211.438 59.0439 211.61 58.9244C211.782 58.8066 211.958 58.7476 212.138 58.7476C212.244 58.7476 212.387 58.7558 212.567 58.7722C212.715 58.7886 212.825 58.7967 212.899 58.7967ZM212.739 65.4392C212.936 65.472 213.194 65.4883 213.513 65.4883C214.053 65.4883 214.565 65.3754 215.048 65.1495C215.53 64.9252 215.919 64.61 216.214 64.2041C216.509 63.7997 216.656 63.3315 216.656 62.7994C216.656 62.2428 216.558 61.7681 216.361 61.3752C216.165 60.9823 215.862 60.6589 215.453 60.4052C215.15 60.2169 214.777 60.0794 214.335 59.9926C213.893 59.9075 213.361 59.8649 212.739 59.8649C212.739 60.0614 212.752 60.307 212.776 60.6016C212.776 60.6999 212.784 60.8718 212.801 61.1173C212.85 62.0668 212.874 62.8322 212.874 63.4133C212.874 64.2564 212.829 64.9317 212.739 65.4392ZM226.832 62.4311C227.43 62.5048 227.874 62.6947 228.166 63.0008C228.455 63.3086 228.6 63.6875 228.6 64.1377C228.6 64.5879 228.435 65.0136 228.104 65.4147C227.772 65.8158 227.348 66.1268 226.832 66.3478C226.603 66.4379 226.303 66.5033 225.931 66.5443C225.558 66.5852 225.175 66.6057 224.782 66.6057C224.127 66.6057 223.456 66.5443 222.768 66.4215C222.645 66.3969 222.517 66.3355 222.383 66.2373C222.247 66.1391 222.179 65.9958 222.179 65.8076C222.171 65.0545 222.142 64.0068 222.093 62.6644L222.08 61.9891C222.048 60.9413 222.031 60.1187 222.031 59.5212C222.031 59.4147 222.095 59.2895 222.223 59.1454C222.349 59.003 222.502 58.9236 222.682 58.9072C222.789 58.9072 222.891 58.9032 222.989 58.895C223.914 58.8049 224.532 58.7599 224.843 58.7599C225.457 58.7599 225.999 58.8188 226.469 58.9367C226.94 59.0562 227.331 59.2715 227.642 59.5825C227.757 59.7135 227.851 59.8789 227.925 60.0786C227.999 60.2799 228.035 60.4748 228.035 60.663C228.044 61.0641 227.94 61.4325 227.724 61.7681C227.506 62.1037 227.209 62.3247 226.832 62.4311ZM224.917 59.8036C224.638 59.8036 224.35 59.8199 224.052 59.8527C223.753 59.8854 223.501 59.9263 223.296 59.9754L223.37 62.296L223.812 62.2837C224.524 62.2101 225.048 62.1487 225.383 62.0996C225.596 62.0505 225.805 61.9539 226.009 61.8098C226.214 61.6674 226.384 61.5159 226.52 61.3555C226.654 61.1967 226.722 61.0764 226.722 60.9945C226.722 60.8718 226.697 60.7465 226.648 60.6188C226.599 60.4928 226.546 60.4011 226.488 60.3438C226.267 60.131 226.042 59.9877 225.813 59.9141C225.584 59.8404 225.285 59.8036 224.917 59.8036ZM223.407 65.5252C223.824 65.5825 224.221 65.6111 224.597 65.6111C225.424 65.6111 226.077 65.5023 226.557 65.2845C227.035 65.0684 227.274 64.6534 227.274 64.0395C227.274 63.794 227.09 63.5893 226.722 63.4256C226.353 63.2619 225.956 63.1801 225.531 63.1801C225.244 63.1801 224.88 63.2128 224.438 63.2783C224.086 63.3274 223.742 63.3601 223.407 63.3765C223.423 63.8676 223.431 64.1787 223.431 64.3096C223.431 64.5634 223.427 64.7558 223.419 64.8867L223.407 65.5252ZM235.562 66.3969C235.455 66.2578 235.365 66.1039 235.292 65.9353C235.218 65.7683 235.14 65.5661 235.058 65.3287C235.042 65.2878 234.995 65.165 234.916 64.9604C234.839 64.7558 234.752 64.5798 234.653 64.4324C234.138 64.5061 233.716 64.5429 233.389 64.5429C233.209 64.5429 233.01 64.5364 232.792 64.5233C232.576 64.5118 232.415 64.5061 232.308 64.5061C231.899 64.4734 231.571 64.457 231.326 64.457C231.228 64.5879 231.143 64.7271 231.073 64.8744C231.004 65.0218 230.917 65.2428 230.81 65.5375C230.663 65.9631 230.536 66.266 230.43 66.446C230.356 66.5688 230.213 66.6302 230 66.6302C229.82 66.6302 229.654 66.5909 229.501 66.5123C229.351 66.4354 229.275 66.3274 229.275 66.1882C229.341 65.8772 229.445 65.5473 229.587 65.1986C229.731 64.8515 229.938 64.3874 230.209 63.8062L230.7 62.603C230.97 61.9154 231.217 61.326 231.441 60.8349C231.667 60.3438 231.964 59.7626 232.333 59.0914C232.382 58.9932 232.464 58.9089 232.578 58.8385C232.693 58.7697 232.82 58.7354 232.959 58.7354C233.114 58.7354 233.227 58.7452 233.295 58.7648C233.366 58.7861 233.421 58.8188 233.462 58.863C233.503 58.9089 233.565 59.0014 233.647 59.1405C233.925 59.5744 234.164 60.0205 234.364 60.4789C234.565 60.9372 234.821 61.5716 235.132 62.382L235.39 63.0327C235.619 63.6221 235.817 64.1148 235.984 64.511C236.153 64.9088 236.34 65.2714 236.544 65.5989C236.675 65.8117 236.741 65.959 236.741 66.0409C236.741 66.2373 236.681 66.3863 236.561 66.4878C236.443 66.5909 236.29 66.6425 236.102 66.6425C235.865 66.6425 235.685 66.5606 235.562 66.3969ZM234.297 63.4256C234.166 63.1473 233.978 62.6644 233.732 61.9768C233.479 61.2401 233.225 60.6548 232.971 60.221C232.816 60.6139 232.586 61.1214 232.284 61.7435C232.079 62.1282 231.846 62.6848 231.584 63.4133C232.108 63.4788 232.672 63.5116 233.278 63.5116C233.712 63.5116 234.052 63.4829 234.297 63.4256ZM242.951 59.6808C242.951 59.4434 243.007 59.2363 243.118 59.0595C243.228 58.8843 243.393 58.7967 243.614 58.7967C243.802 58.7967 243.97 58.8336 244.117 58.9072C244.265 58.9809 244.338 59.1037 244.338 59.2756C244.338 59.6112 244.322 60.0819 244.289 60.6876C244.256 61.2769 244.24 61.7149 244.24 62.0013C244.24 62.4515 244.256 63.0532 244.289 63.8062C244.322 64.5266 244.338 65.0545 244.338 65.3901C244.338 65.6602 244.334 65.8608 244.326 65.9918C244.326 66.1227 244.255 66.2512 244.112 66.3773C243.968 66.505 243.749 66.5688 243.454 66.5688C243.299 66.5688 243.166 66.5418 243.057 66.4878C242.945 66.4354 242.869 66.3765 242.828 66.311C242.443 65.8444 241.883 65.0504 241.146 63.929C240.319 62.6766 239.644 61.7189 239.12 61.0559C239.186 61.6453 239.218 62.3656 239.218 63.2169C239.218 63.5934 239.213 64.0821 239.201 64.6829C239.188 65.2853 239.169 65.6807 239.145 65.869C239.112 66.1063 239.041 66.2881 238.931 66.4141C238.82 66.5418 238.645 66.6057 238.408 66.6057C238.228 66.6057 238.095 66.5541 238.01 66.451C237.923 66.3495 237.872 66.1718 237.855 65.9181C237.847 65.5825 237.868 65.0791 237.917 64.4079C237.925 64.3015 237.937 64.1173 237.954 63.8554C237.97 63.5934 237.978 63.3601 237.978 63.1555C237.978 62.5907 237.95 61.944 237.892 61.2155C237.843 60.4134 237.819 59.8199 237.819 59.4352C237.819 59.2388 237.891 59.0873 238.035 58.9809C238.177 58.8745 238.343 58.8213 238.531 58.8213C238.694 58.8213 238.866 58.8622 239.046 58.9441C239.75 59.8281 240.704 61.146 241.907 62.8977L243.061 64.6657C243.07 64.5347 243.074 64.3506 243.074 64.1132C243.074 63.6957 243.065 63.2455 243.049 62.7626C243.033 62.2797 243.02 61.9522 243.012 61.7803C242.971 60.9864 242.951 60.2865 242.951 59.6808ZM252.724 65.648C252.806 65.6889 252.87 65.7421 252.916 65.8076C252.96 65.8731 252.982 65.9672 252.982 66.09C252.982 66.2455 252.923 66.3699 252.805 66.4632C252.686 66.5582 252.548 66.6057 252.393 66.6057C252.213 66.6057 252.008 66.5606 251.779 66.4706C251.321 66.266 250.873 65.887 250.436 65.3336C249.997 64.7819 249.471 63.9863 248.857 62.9468C248.39 63.3069 247.915 63.6425 247.432 63.9536C247.432 64.1255 247.439 64.3236 247.452 64.5478C247.464 64.7738 247.469 64.9399 247.469 65.0463C247.486 65.5211 247.494 65.8362 247.494 65.9918C247.494 66.1309 247.449 66.2635 247.359 66.3896C247.269 66.5173 247.134 66.5811 246.954 66.5811C246.692 66.5811 246.503 66.5377 246.389 66.451C246.274 66.3658 246.205 66.2414 246.18 66.0777C246.115 65.6684 246.082 65.2755 246.082 64.899C246.082 64.4734 246.115 63.8594 246.18 63.0573C246.246 62.2878 246.278 61.7108 246.278 61.326C246.278 61.1787 246.27 60.9659 246.254 60.6876C246.246 60.4666 246.221 60.2619 246.18 60.0737C246.147 59.8117 246.131 59.6276 246.131 59.5212C246.131 59.2592 246.188 59.071 246.303 58.9564C246.417 58.8418 246.593 58.7845 246.831 58.7845C247.011 58.7845 247.161 58.8352 247.28 58.9367C247.398 59.0399 247.465 59.1774 247.482 59.3493C247.522 60.045 247.543 60.5812 247.543 60.9577C247.535 61.1623 247.521 61.4546 247.501 61.8344C247.48 62.2158 247.461 62.4556 247.445 62.5539C247.723 62.3983 248.27 61.9498 249.085 61.2082C249.899 60.4682 250.477 59.8854 250.821 59.4598L250.981 59.2756C251.112 59.1037 251.222 58.985 251.312 58.9195C251.402 58.854 251.525 58.8213 251.681 58.8213C251.836 58.8213 251.978 58.872 252.106 58.9735C252.232 59.0767 252.295 59.1978 252.295 59.337C252.295 59.6071 252.155 59.8813 251.877 60.1596C251.198 60.8636 250.518 61.5184 249.839 62.1241C250.797 63.9167 251.758 65.0914 252.724 65.648ZM255.966 59.4229C255.966 59.071 256.224 58.895 256.739 58.895C256.96 58.895 257.382 58.9032 258.004 58.9195C258.692 58.9523 259.211 58.9686 259.563 58.9686C259.85 58.9686 260.198 58.9523 260.607 58.9195C260.885 58.9032 261.061 58.895 261.135 58.895C261.585 58.9113 261.966 58.9932 262.277 59.1405C262.367 59.1815 262.44 59.2306 262.498 59.2879C262.555 59.3452 262.584 59.4393 262.584 59.5703C262.584 59.7503 262.526 59.9034 262.412 60.0295C262.297 60.1572 262.158 60.221 261.994 60.221C261.814 60.221 261.552 60.1965 261.209 60.1473C260.906 60.09 260.64 60.0614 260.41 60.0614C260.189 60.0614 260.022 60.0655 259.907 60.0737C259.883 60.3438 259.87 60.9904 259.87 62.0136C259.87 63.2333 259.907 64.4693 259.981 65.7216L260.005 66.0777C260.005 66.4133 259.813 66.5811 259.428 66.5811C259.125 66.5811 258.921 66.5091 258.814 66.365C258.708 66.2226 258.655 66.004 258.655 65.7094C258.655 65.1282 258.638 64.4038 258.606 63.5361C258.573 62.8158 258.556 62.3042 258.556 62.0013C258.556 61.7967 258.581 61.1705 258.63 60.1228L257.194 60.1351C256.735 60.1351 256.416 60.0917 256.236 60.0049C256.056 59.9198 255.966 59.7258 255.966 59.4229ZM267.578 63.3274C267.865 63.8103 268.154 64.2376 268.445 64.6092C268.735 64.9825 269.117 65.4392 269.592 65.9795C269.649 66.0368 269.678 66.1023 269.678 66.1759C269.678 66.2905 269.615 66.3887 269.489 66.4706C269.361 66.5525 269.207 66.5934 269.027 66.5934C268.774 66.5934 268.499 66.487 268.205 66.2742C267.943 66.0859 267.709 65.8362 267.505 65.5252C267.3 65.2141 267.063 64.809 266.793 64.3096C266.58 63.9249 266.453 63.6998 266.412 63.6343C266.093 63.7653 265.593 63.8472 264.914 63.8799C264.914 64.1582 264.939 64.5347 264.988 65.0095C265.037 65.5006 265.061 65.8567 265.061 66.0777C265.061 66.225 264.99 66.3478 264.848 66.446C264.704 66.5443 264.542 66.5934 264.362 66.5934C264.149 66.5934 263.985 66.5074 263.87 66.3355C263.756 66.1063 263.682 65.8321 263.649 65.5129C263.617 65.1937 263.6 64.813 263.6 64.371C263.6 63.9045 263.629 63.3765 263.686 62.7871C263.735 62.1323 263.76 61.6494 263.76 61.3383C263.76 61.0846 263.735 60.7449 263.686 60.3192C263.678 60.2456 263.666 60.1187 263.649 59.9386C263.633 59.7585 263.625 59.5948 263.625 59.4475C263.625 59.3329 263.668 59.2322 263.755 59.1454C263.84 59.0603 263.932 59.0014 264.03 58.9686C264.693 58.8622 265.34 58.809 265.97 58.809C267.042 58.809 267.93 59.0096 268.634 59.4107C269.338 59.8117 269.69 60.4216 269.69 61.2401C269.69 61.4938 269.635 61.737 269.526 61.9694C269.414 62.2035 269.265 62.3983 269.076 62.5539C268.577 62.9386 268.078 63.1964 267.578 63.3274ZM268.401 61.2033C268.401 60.8104 268.192 60.4887 267.775 60.2382C267.357 59.9894 266.764 59.8649 265.995 59.8649C265.651 59.8649 265.311 59.9059 264.975 59.9877L264.988 60.6139C264.988 60.9741 264.975 61.326 264.951 61.6698C264.926 62.0136 264.914 62.382 264.914 62.7749C265.053 62.7421 265.201 62.7192 265.356 62.7061C265.512 62.6947 265.614 62.6848 265.663 62.6766C266.023 62.6439 266.302 62.603 266.498 62.5539C266.866 62.4393 267.172 62.3345 267.414 62.2395C267.655 62.1462 267.88 62.0112 268.089 61.8344C268.297 61.6592 268.401 61.4488 268.401 61.2033ZM276.615 66.3969C276.509 66.2578 276.419 66.1039 276.345 65.9353C276.271 65.7683 276.194 65.5661 276.112 65.3287C276.095 65.2878 276.049 65.165 275.972 64.9604C275.893 64.7558 275.805 64.5798 275.707 64.4324C275.191 64.5061 274.769 64.5429 274.442 64.5429C274.262 64.5429 274.064 64.5364 273.848 64.5233C273.63 64.5118 273.468 64.5061 273.361 64.5061C272.952 64.4734 272.625 64.457 272.379 64.457C272.281 64.5879 272.198 64.7271 272.129 64.8744C272.058 65.0218 271.97 65.2428 271.864 65.5375C271.716 65.9631 271.589 66.266 271.483 66.446C271.409 66.5688 271.266 66.6302 271.053 66.6302C270.873 66.6302 270.708 66.5909 270.557 66.5123C270.405 66.4354 270.329 66.3274 270.329 66.1882C270.394 65.8772 270.499 65.5473 270.643 65.1986C270.786 64.8515 270.992 64.3874 271.262 63.8062L271.753 62.603C272.023 61.9154 272.271 61.326 272.497 60.8349C272.721 60.3438 273.018 59.7626 273.386 59.0914C273.435 58.9932 273.517 58.9089 273.632 58.8385C273.746 58.7697 273.873 58.7354 274.012 58.7354C274.168 58.7354 274.281 58.7452 274.351 58.7648C274.42 58.7861 274.475 58.8188 274.516 58.863C274.557 58.9089 274.618 59.0014 274.7 59.1405C274.978 59.5744 275.218 60.0205 275.419 60.4789C275.619 60.9372 275.874 61.5716 276.185 62.382L276.443 63.0327C276.673 63.6221 276.871 64.1148 277.04 64.511C277.207 64.9088 277.393 65.2714 277.597 65.5989C277.728 65.8117 277.794 65.959 277.794 66.0409C277.794 66.2373 277.735 66.3863 277.617 66.4878C277.498 66.5909 277.344 66.6425 277.155 66.6425C276.918 66.6425 276.738 66.5606 276.615 66.3969ZM275.351 63.4256C275.22 63.1473 275.031 62.6644 274.786 61.9768C274.532 61.2401 274.278 60.6548 274.025 60.221C273.869 60.6139 273.64 61.1214 273.337 61.7435C273.132 62.1282 272.899 62.6848 272.637 63.4133C273.161 63.4788 273.726 63.5116 274.331 63.5116C274.765 63.5116 275.105 63.4829 275.351 63.4256ZM284.866 59.7667C284.989 59.9141 285.075 60.0327 285.124 60.1228C285.173 60.2128 285.198 60.2988 285.198 60.3806C285.198 60.4789 285.134 60.5934 285.006 60.7244C284.88 60.8554 284.756 60.9209 284.633 60.9209C284.469 60.9209 284.338 60.8963 284.24 60.8472C284.142 60.7981 284.06 60.7203 283.994 60.6139C283.863 60.4175 283.704 60.2472 283.516 60.1031C283.327 59.9607 283.033 59.8895 282.632 59.8895C282.288 59.8895 281.896 59.9673 281.458 60.1228C281.021 60.2783 280.708 60.4707 280.52 60.6999C280.356 60.9045 280.214 61.2155 280.095 61.633C279.977 62.0505 279.918 62.4556 279.918 62.8485C279.918 63.3233 280.022 63.7588 280.23 64.1549C280.439 64.5528 280.742 64.8703 281.138 65.1077C281.536 65.3451 282.014 65.4638 282.57 65.4638C282.873 65.4638 283.186 65.404 283.508 65.2845C283.832 65.1667 284.113 64.9727 284.35 64.7025H284.338C284.486 64.547 284.67 64.4693 284.891 64.4693C285.022 64.4693 285.146 64.5266 285.264 64.6412C285.383 64.7558 285.443 64.8703 285.443 64.9849C285.443 65.1077 285.424 65.2158 285.387 65.3091C285.351 65.404 285.284 65.5088 285.185 65.6234C284.85 65.9999 284.453 66.2578 283.994 66.3969C283.536 66.5361 282.988 66.6057 282.349 66.6057C281.784 66.6057 281.213 66.4706 280.635 66.2005C280.059 65.9304 279.615 65.6029 279.304 65.2182C279.14 64.9809 278.982 64.6387 278.83 64.1918C278.68 63.7465 278.604 63.3847 278.604 63.1064C278.604 62.3942 278.712 61.7165 278.928 61.0731C279.146 60.4314 279.472 59.9181 279.906 59.5334C280.192 59.2715 280.606 59.075 281.146 58.9441C281.686 58.8131 282.181 58.7476 282.632 58.7476C283.18 58.7476 283.611 58.8229 283.926 58.9735C284.242 59.1258 284.555 59.3902 284.866 59.7667ZM293.387 65.648C293.469 65.6889 293.532 65.7421 293.576 65.8076C293.622 65.8731 293.645 65.9672 293.645 66.09C293.645 66.2455 293.585 66.3699 293.466 66.4632C293.348 66.5582 293.211 66.6057 293.056 66.6057C292.876 66.6057 292.671 66.5606 292.442 66.4706C291.983 66.266 291.535 65.887 291.096 65.3336C290.659 64.7819 290.133 63.9863 289.52 62.9468C289.053 63.3069 288.578 63.6425 288.095 63.9536C288.095 64.1255 288.101 64.3236 288.112 64.5478C288.126 64.7738 288.132 64.9399 288.132 65.0463C288.149 65.5211 288.157 65.8362 288.157 65.9918C288.157 66.1309 288.112 66.2635 288.022 66.3896C287.932 66.5173 287.797 66.5811 287.616 66.5811C287.355 66.5811 287.166 66.5377 287.052 66.451C286.937 66.3658 286.867 66.2414 286.843 66.0777C286.777 65.6684 286.745 65.2755 286.745 64.899C286.745 64.4734 286.777 63.8594 286.843 63.0573C286.908 62.2878 286.941 61.7108 286.941 61.326C286.941 61.1787 286.933 60.9659 286.917 60.6876C286.908 60.4666 286.884 60.2619 286.843 60.0737C286.81 59.8117 286.794 59.6276 286.794 59.5212C286.794 59.2592 286.851 59.071 286.966 58.9564C287.08 58.8418 287.256 58.7845 287.494 58.7845C287.674 58.7845 287.823 58.8352 287.941 58.9367C288.06 59.0399 288.128 59.1774 288.144 59.3493C288.185 60.045 288.206 60.5812 288.206 60.9577C288.198 61.1623 288.183 61.4546 288.162 61.8344C288.142 62.2158 288.124 62.4556 288.108 62.5539C288.386 62.3983 288.932 61.9498 289.745 61.2082C290.561 60.4682 291.14 59.8854 291.484 59.4598L291.644 59.2756C291.775 59.1037 291.885 58.985 291.975 58.9195C292.065 58.854 292.188 58.8213 292.344 58.8213C292.499 58.8213 292.64 58.872 292.766 58.9735C292.894 59.0767 292.957 59.1978 292.957 59.337C292.957 59.6071 292.818 59.8813 292.54 60.1596C291.861 60.8636 291.181 61.5184 290.502 62.1241C291.46 63.9167 292.421 65.0914 293.387 65.648ZM296.589 59.8036C296.565 60.3274 296.552 60.8308 296.552 61.3138C296.552 61.8131 296.585 62.5457 296.651 63.5116C296.659 63.6589 296.675 63.9552 296.7 64.4005C296.724 64.8474 296.737 65.2551 296.737 65.6234C296.819 65.6152 296.907 65.6029 297.002 65.5866C297.095 65.5702 297.166 65.562 297.216 65.562C297.396 65.562 297.539 65.607 297.645 65.6971C297.752 65.7871 297.805 65.9263 297.805 66.1145C297.805 66.2373 297.756 66.3314 297.658 66.3969C297.559 66.4624 297.39 66.5091 297.149 66.5369C296.907 66.5664 296.557 66.5811 296.098 66.5811C295.591 66.5811 295.21 66.5647 294.956 66.532C294.703 66.4993 294.527 66.4354 294.428 66.3405C294.33 66.2471 294.281 66.1063 294.281 65.9181C294.281 65.7789 294.326 65.6848 294.416 65.6357C294.506 65.5866 294.633 65.562 294.797 65.562L295.055 65.5743L295.46 65.5989L295.398 64.15C295.349 63.3642 295.325 62.6439 295.325 61.9891C295.325 61.6371 295.337 61.1542 295.362 60.5402L295.386 59.8649C295.108 59.8813 294.891 59.8895 294.735 59.8895C294.555 59.8895 294.435 59.8568 294.374 59.7913C294.312 59.7258 294.281 59.5907 294.281 59.3861C294.281 59.1569 294.439 59.0096 294.755 58.9441C295.069 58.8786 295.55 58.8459 296.196 58.8459C296.696 58.8459 297.071 58.8622 297.321 58.895C297.57 58.9277 297.694 59.0014 297.694 59.116C297.694 59.3943 297.635 59.576 297.518 59.6611C297.398 59.7479 297.171 59.7913 296.835 59.7913L296.589 59.8036ZM304.325 59.6808C304.325 59.4434 304.38 59.2363 304.492 59.0595C304.601 58.8843 304.767 58.7967 304.988 58.7967C305.176 58.7967 305.344 58.8336 305.491 58.9072C305.638 58.9809 305.712 59.1037 305.712 59.2756C305.712 59.6112 305.696 60.0819 305.663 60.6876C305.63 61.2769 305.614 61.7149 305.614 62.0013C305.614 62.4515 305.63 63.0532 305.663 63.8062C305.696 64.5266 305.712 65.0545 305.712 65.3901C305.712 65.6602 305.708 65.8608 305.7 65.9918C305.7 66.1227 305.629 66.2512 305.486 66.3773C305.342 66.505 305.123 66.5688 304.828 66.5688C304.672 66.5688 304.54 66.5418 304.43 66.4878C304.319 66.4354 304.243 66.3765 304.202 66.311C303.817 65.8444 303.256 65.0504 302.52 63.929C301.693 62.6766 301.018 61.7189 300.494 61.0559C300.559 61.6453 300.592 62.3656 300.592 63.2169C300.592 63.5934 300.586 64.0821 300.575 64.6829C300.562 65.2853 300.543 65.6807 300.518 65.869C300.486 66.1063 300.414 66.2881 300.305 66.4141C300.193 66.5418 300.019 66.6057 299.782 66.6057C299.602 66.6057 299.469 66.5541 299.384 66.451C299.297 66.3495 299.246 66.1718 299.229 65.9181C299.221 65.5825 299.241 65.0791 299.291 64.4079C299.299 64.3015 299.311 64.1173 299.327 63.8554C299.344 63.5934 299.352 63.3601 299.352 63.1555C299.352 62.5907 299.323 61.944 299.266 61.2155C299.217 60.4134 299.192 59.8199 299.192 59.4352C299.192 59.2388 299.264 59.0873 299.408 58.9809C299.551 58.8745 299.716 58.8213 299.904 58.8213C300.068 58.8213 300.24 58.8622 300.42 58.9441C301.124 59.8281 302.078 61.146 303.281 62.8977L304.435 64.6657C304.443 64.5347 304.447 64.3506 304.447 64.1132C304.447 63.6957 304.439 63.2455 304.423 62.7626C304.406 62.2797 304.394 61.9522 304.386 61.7803C304.345 60.9864 304.325 60.2865 304.325 59.6808ZM313.116 60.6753C312.764 60.4216 312.461 60.2349 312.207 60.1154C311.953 59.9975 311.659 59.9386 311.323 59.9386C310.652 59.9386 310.075 60.1105 309.592 60.4543C309.224 60.7244 308.949 61.0764 308.769 61.5102C308.589 61.944 308.499 62.4311 308.499 62.9713C308.499 63.487 308.618 63.9388 308.855 64.3268C309.093 64.7165 309.4 65.0136 309.776 65.2182C310.153 65.4229 310.546 65.5252 310.955 65.5252C311.364 65.5252 311.718 65.4613 312.016 65.3336C312.315 65.2076 312.555 65.0422 312.735 64.8376C313.013 64.4856 313.153 64.0191 313.153 63.4379C313.153 63.356 313.087 63.2987 312.956 63.266C312.825 63.2333 312.637 63.2169 312.391 63.2169L311.507 63.2292C311.27 63.2292 311.082 63.1841 310.943 63.0941C310.803 63.0041 310.734 62.8895 310.734 62.7503C310.734 62.5539 310.799 62.4082 310.93 62.3132C311.061 62.2199 311.237 62.1732 311.458 62.1732C311.72 62.1732 312.072 62.1896 312.514 62.2224C312.956 62.2551 313.275 62.2715 313.472 62.2715C313.758 62.2715 313.989 62.3615 314.164 62.5416C314.341 62.7217 314.43 62.9836 314.43 63.3274C314.43 63.6466 314.36 64.0191 314.221 64.4447C314.082 64.8703 313.885 65.251 313.631 65.5866C313.386 65.914 313.023 66.1612 312.544 66.3282C312.066 66.4968 311.536 66.5811 310.955 66.5811C310.472 66.5811 310.005 66.5033 309.555 66.3478C309.105 66.1923 308.728 65.9754 308.426 65.6971C308.049 65.3451 307.752 64.926 307.534 64.4398C307.318 63.9519 307.21 63.4665 307.21 62.9836C307.21 62.2797 307.375 61.5937 307.706 60.9258C308.038 60.2595 308.487 59.7422 309.052 59.3738C309.297 59.2101 309.641 59.075 310.083 58.9686C310.525 58.8622 310.93 58.809 311.299 58.809C311.872 58.809 312.375 58.8966 312.809 59.0718C313.243 59.2486 313.574 59.5007 313.803 59.8281C313.902 59.9754 313.951 60.1064 313.951 60.221C313.951 60.352 313.893 60.4748 313.779 60.5894C313.664 60.704 313.55 60.7613 313.435 60.7613C313.386 60.7613 313.329 60.7531 313.263 60.7367C313.198 60.7203 313.148 60.6999 313.116 60.6753ZM324.225 64.3588C324.225 64.7435 324.137 65.0725 323.962 65.3459C323.785 65.621 323.497 65.8731 323.095 66.1023C322.825 66.266 322.51 66.3887 322.15 66.4706C321.79 66.5525 321.426 66.5934 321.057 66.5934C320.681 66.5934 320.214 66.4706 319.658 66.225C319.256 66.0286 318.94 65.7953 318.707 65.5252C318.473 65.2551 318.356 64.9604 318.356 64.6412C318.356 64.4201 318.405 64.2581 318.503 64.1549C318.602 64.0534 318.761 64.0027 318.982 64.0027C319.097 64.0027 319.216 64.0493 319.338 64.1427C319.461 64.2376 319.535 64.3301 319.559 64.4201C319.674 64.7558 319.874 65.0111 320.161 65.1863C320.447 65.3631 320.804 65.4515 321.229 65.4515C321.72 65.4515 322.132 65.3615 322.464 65.1814C322.795 65.0013 322.96 64.7598 322.96 64.457C322.96 64.1623 322.78 63.9004 322.42 63.6712C322.06 63.442 321.692 63.2824 321.315 63.1923C320.775 63.045 320.296 62.869 319.879 62.6644C319.445 62.4515 319.121 62.1896 318.909 61.8786C318.696 61.5675 318.589 61.2401 318.589 60.8963C318.589 60.5771 318.7 60.2513 318.921 59.919C319.142 59.5883 319.404 59.3493 319.707 59.2019C319.87 59.1201 320.151 59.0317 320.549 58.9367C320.945 58.8434 321.233 58.7967 321.413 58.7967C321.651 58.7967 321.913 58.8254 322.199 58.8827C322.486 58.94 322.719 59.0218 322.899 59.1283C323.259 59.3329 323.525 59.5171 323.697 59.6808C323.869 59.8445 323.955 60.0491 323.955 60.2947C323.955 60.442 323.9 60.573 323.79 60.6876C323.679 60.8022 323.488 60.8595 323.218 60.8595C323.153 60.8595 323.087 60.8308 323.022 60.7735C322.956 60.7162 322.874 60.6303 322.776 60.5157C322.645 60.3438 322.518 60.2292 322.396 60.1719C322.273 60.131 322.095 60.086 321.863 60.0368C321.629 59.9877 321.422 59.9632 321.241 59.9632C321.045 59.9632 320.84 60.0041 320.628 60.086C320.415 60.1678 320.237 60.284 320.095 60.4347C319.951 60.5869 319.879 60.7613 319.879 60.9577C319.879 61.1214 319.955 61.2622 320.107 61.3801C320.258 61.4996 320.439 61.5962 320.652 61.6698C320.898 61.7681 321.164 61.854 321.45 61.9277C321.827 62.0423 322.136 62.1462 322.378 62.2395C322.619 62.3345 322.854 62.4515 323.083 62.5907C323.484 62.8281 323.775 63.0712 323.955 63.32C324.135 63.5705 324.225 63.9167 324.225 64.3588ZM331.604 59.3738C331.604 59.5212 331.477 59.7381 331.224 60.0246C330.921 60.3683 330.131 61.4243 328.854 63.1923C328.87 64.2483 328.903 64.9727 328.952 65.3656C328.977 65.6111 328.989 65.7871 328.989 65.8935C328.989 66.1636 328.942 66.3454 328.849 66.4387C328.754 66.5336 328.592 66.5811 328.363 66.5811C328.191 66.5811 328.03 66.5295 327.879 66.4264C327.727 66.3249 327.651 66.2005 327.651 66.0531C327.651 65.4556 327.638 64.5798 327.614 63.4256C327.614 63.3765 327.581 63.2946 327.516 63.1801C327.45 63.0655 327.409 62.9918 327.393 62.959C327.221 62.6562 327.006 62.3181 326.749 61.9449C326.491 61.5732 326.267 61.2933 326.079 61.105C325.719 60.7449 325.437 60.4191 325.232 60.1277C325.027 59.8379 324.925 59.6317 324.925 59.5089C324.925 59.337 325.005 59.1995 325.166 59.0963C325.324 58.9948 325.498 58.9441 325.686 58.9441C325.793 58.9441 325.906 58.9727 326.025 59.03C326.143 59.0873 326.239 59.1692 326.312 59.2756C326.795 59.9959 327.225 60.5934 327.602 61.0682L328.179 61.8172C328.531 61.457 328.84 61.0985 329.107 60.7416C329.372 60.3864 329.664 59.9632 329.984 59.472L330.192 59.1528C330.348 58.94 330.589 58.8336 330.917 58.8336C331.072 58.8336 331.226 58.8786 331.378 58.9686C331.529 59.0587 331.604 59.1937 331.604 59.3738ZM338.112 64.3588C338.112 64.7435 338.023 65.0725 337.846 65.3459C337.671 65.621 337.383 65.8731 336.982 66.1023C336.712 66.266 336.397 66.3887 336.037 66.4706C335.676 66.5525 335.312 66.5934 334.944 66.5934C334.567 66.5934 334.101 66.4706 333.544 66.225C333.143 66.0286 332.825 65.7953 332.591 65.5252C332.359 65.2551 332.243 64.9604 332.243 64.6412C332.243 64.4201 332.292 64.2581 332.39 64.1549C332.488 64.0534 332.648 64.0027 332.869 64.0027C332.983 64.0027 333.102 64.0493 333.225 64.1427C333.348 64.2376 333.421 64.3301 333.446 64.4201C333.561 64.7558 333.761 65.0111 334.048 65.1863C334.334 65.3631 334.69 65.4515 335.116 65.4515C335.607 65.4515 336.018 65.3615 336.348 65.1814C336.681 65.0013 336.847 64.7598 336.847 64.457C336.847 64.1623 336.667 63.9004 336.307 63.6712C335.947 63.442 335.578 63.2824 335.202 63.1923C334.661 63.045 334.183 62.869 333.765 62.6644C333.331 62.4515 333.008 62.1896 332.795 61.8786C332.582 61.5675 332.476 61.2401 332.476 60.8963C332.476 60.5771 332.586 60.2513 332.807 59.919C333.029 59.5883 333.29 59.3493 333.593 59.2019C333.757 59.1201 334.037 59.0317 334.433 58.9367C334.831 58.8434 335.12 58.7967 335.3 58.7967C335.537 58.7967 335.799 58.8254 336.086 58.8827C336.372 58.94 336.606 59.0218 336.786 59.1283C337.146 59.3329 337.412 59.5171 337.584 59.6808C337.756 59.8445 337.842 60.0491 337.842 60.2947C337.842 60.442 337.786 60.573 337.675 60.6876C337.565 60.8022 337.375 60.8595 337.105 60.8595C337.039 60.8595 336.974 60.8308 336.908 60.7735C336.843 60.7162 336.761 60.6303 336.663 60.5157C336.532 60.3438 336.405 60.2292 336.282 60.1719C336.159 60.131 335.981 60.086 335.747 60.0368C335.514 59.9877 335.308 59.9632 335.128 59.9632C334.932 59.9632 334.727 60.0041 334.514 60.086C334.301 60.1678 334.123 60.284 333.979 60.4347C333.836 60.5869 333.765 60.7613 333.765 60.9577C333.765 61.1214 333.84 61.2622 333.991 61.3801C334.143 61.4996 334.326 61.5962 334.539 61.6698C334.784 61.7681 335.05 61.854 335.337 61.9277C335.713 62.0423 336.022 62.1462 336.263 62.2395C336.505 62.3345 336.741 62.4515 336.97 62.5907C337.371 62.8281 337.661 63.0712 337.842 63.32C338.022 63.5705 338.112 63.9167 338.112 64.3588ZM338.75 59.4229C338.75 59.071 339.008 58.895 339.524 58.895C339.745 58.895 340.166 58.9032 340.788 58.9195C341.476 58.9523 341.996 58.9686 342.348 58.9686C342.634 58.9686 342.982 58.9523 343.391 58.9195C343.67 58.9032 343.846 58.895 343.919 58.895C344.369 58.9113 344.75 58.9932 345.061 59.1405C345.151 59.1815 345.225 59.2306 345.282 59.2879C345.339 59.3452 345.368 59.4393 345.368 59.5703C345.368 59.7503 345.311 59.9034 345.196 60.0295C345.082 60.1572 344.942 60.221 344.779 60.221C344.599 60.221 344.337 60.1965 343.993 60.1473C343.69 60.09 343.424 60.0614 343.195 60.0614C342.974 60.0614 342.806 60.0655 342.691 60.0737C342.667 60.3438 342.655 60.9904 342.655 62.0136C342.655 63.2333 342.691 64.4693 342.765 65.7216L342.79 66.0777C342.79 66.4133 342.597 66.5811 342.213 66.5811C341.91 66.5811 341.705 66.5091 341.599 66.365C341.492 66.2226 341.439 66.004 341.439 65.7094C341.439 65.1282 341.423 64.4038 341.39 63.5361C341.357 62.8158 341.341 62.3042 341.341 62.0013C341.341 61.7967 341.365 61.1705 341.414 60.1228L339.978 60.1351C339.52 60.1351 339.2 60.0917 339.02 60.0049C338.84 59.9198 338.75 59.7258 338.75 59.4229ZM351.419 64.9113C351.574 64.9113 351.691 64.9702 351.77 65.0881C351.847 65.2076 351.885 65.3369 351.885 65.4761C351.885 65.648 351.859 65.7683 351.807 65.837C351.753 65.9074 351.652 65.9795 351.505 66.0531C351.161 66.2169 350.735 66.3478 350.228 66.446C349.72 66.5443 349.176 66.5934 348.595 66.5934C347.866 66.5934 347.333 66.4706 346.994 66.225C346.653 65.9795 346.444 65.6823 346.368 65.3336C346.289 64.9866 346.25 64.5307 346.25 63.9659C346.25 63.3601 346.274 62.7642 346.323 62.1782C346.372 61.5937 346.458 60.8472 346.581 59.9386C346.638 59.5457 346.794 59.2609 347.048 59.0841C347.301 58.9089 347.58 58.8213 347.883 58.8213C348.136 58.8213 348.55 58.8131 349.123 58.7967L350.191 58.7845C350.633 58.7845 350.952 58.7967 351.149 58.8213C351.394 58.8704 351.577 58.9253 351.696 58.9858C351.814 59.048 351.873 59.1528 351.873 59.3001C351.873 59.4639 351.818 59.6235 351.709 59.779C351.597 59.9345 351.431 60.0123 351.21 60.0123C350.956 60.0123 350.592 59.9959 350.117 59.9632C349.643 59.9304 349.286 59.9141 349.049 59.9141C348.844 59.9141 348.644 59.9263 348.447 59.9509C348.218 59.9673 348.055 59.9959 347.956 60.0368C347.858 60.0778 347.801 60.1473 347.784 60.2456C347.67 61.0887 347.612 61.7108 347.612 62.1118C347.801 62.1364 347.985 62.1487 348.165 62.1487C348.394 62.1487 348.64 62.1364 348.902 62.1118C349.164 62.0873 349.331 62.0709 349.405 62.0627C349.839 62.0218 350.211 62.0013 350.522 62.0013C350.702 62.0013 350.84 62.0341 350.935 62.0996C351.028 62.1651 351.075 62.2551 351.075 62.3697C351.075 62.5498 351.028 62.6889 350.935 62.7871C350.84 62.8854 350.674 62.959 350.436 63.0082C350.15 63.0655 349.796 63.1105 349.376 63.1432C348.953 63.176 348.542 63.1923 348.14 63.1923C348.001 63.1923 347.809 63.1841 347.563 63.1678C347.539 63.6671 347.527 64.1296 347.527 64.5552C347.527 65.1364 347.911 65.427 348.681 65.427C349.09 65.427 349.43 65.3983 349.7 65.341C349.97 65.2837 350.281 65.2019 350.633 65.0954C350.96 64.9727 351.222 64.9113 351.419 64.9113ZM360.247 58.8213C360.361 58.8213 360.503 58.8966 360.672 59.0472C360.839 59.1995 360.922 59.3288 360.922 59.4352C360.922 59.9345 360.906 60.618 360.873 61.4857C360.865 61.6985 360.857 61.9539 360.848 62.2518C360.84 62.5514 360.836 62.8977 360.836 63.2906C360.836 64.5347 360.91 65.4515 361.057 66.0409C361.049 66.2373 360.971 66.3781 360.824 66.4632C360.676 66.55 360.529 66.5934 360.382 66.5934C360.054 66.5934 359.84 66.4788 359.738 66.2496C359.635 66.0204 359.584 65.693 359.584 65.2673C359.584 63.6875 359.6 62.2346 359.633 60.9086C358.692 61.9563 357.959 62.8363 357.435 63.5484C357.435 63.5484 357.361 63.5975 357.214 63.6957C357.075 63.8185 356.96 63.8799 356.87 63.8799C356.657 63.8799 356.481 63.8267 356.342 63.7203C356.203 63.6139 356.068 63.4584 355.937 63.2537L355.348 62.4188C354.938 61.8458 354.64 61.412 354.451 61.1173C354.451 61.8704 354.488 62.8936 354.562 64.1869C354.619 64.9317 354.648 65.4924 354.648 65.869C354.648 66.0654 354.599 66.2308 354.501 66.365C354.402 66.5009 354.247 66.5688 354.034 66.5688C353.821 66.5688 353.648 66.5279 353.513 66.446C353.378 66.3642 353.305 66.2414 353.297 66.0777C353.305 65.9385 353.31 65.7094 353.31 65.3901C353.31 64.7517 353.289 63.974 353.248 63.0573L353.224 62.3942L353.199 61.5348C353.191 61.281 353.183 60.9839 353.175 60.6434C353.166 60.3045 353.162 59.9345 353.162 59.5334C353.162 59.0423 353.428 58.7967 353.96 58.7967C354.124 58.7967 354.29 58.8377 354.459 58.9195C354.626 59.0014 354.75 59.1201 354.832 59.2756C354.898 59.5621 355.139 60.0368 355.556 60.6999C355.974 61.3629 356.383 61.985 356.784 62.5661C357.144 62.1078 357.439 61.764 357.668 61.5348C358.061 61.1337 358.387 60.7613 358.646 60.4175C358.903 60.0737 359.183 59.6603 359.485 59.1774C359.559 59.0791 359.666 58.9948 359.805 58.9244C359.944 58.8557 360.091 58.8213 360.247 58.8213Z" fill="#FF0000"/>
</g>
</g>
</g>
</g>
<g clip-path="url(#clip8_504_4)">
<g clip-path="url(#clip9_504_4)">
<path d="M12.4084 21.2138H7.25047C6.80092 21.2138 6.43606 21.5787 6.43606 22.0282C6.43606 22.4778 6.80092 22.8427 7.25047 22.8427H12.4084C12.858 22.8427 13.2228 22.4778 13.2228 22.0282C13.2228 21.5787 12.858 21.2138 12.4084 21.2138ZM12.4084 26.716H7.25047C6.80092 26.716 6.43606 27.0809 6.43606 27.5304C6.43606 27.98 6.80092 28.3448 7.25047 28.3448H12.4084C12.858 28.3448 13.2228 27.98 13.2228 27.5304C13.2228 27.0809 12.858 26.716 12.4084 26.716ZM12.4084 15.7116H7.25047C6.80092 15.7116 6.43606 16.0765 6.43606 16.5261C6.43606 16.9756 6.80092 17.3405 7.25047 17.3405H12.4084C12.858 17.3405 13.2228 16.9756 13.2228 16.5261C13.2228 16.0765 12.858 15.7116 12.4084 15.7116ZM34.1555 12.8514C32.8242 11.4007 30.9304 10.5689 28.9617 10.5689C28.5121 10.5689 28.1473 10.9337 28.1473 11.3833C28.1473 11.8328 28.5121 12.1977 28.9617 12.1977C30.4765 12.1977 31.9316 12.8373 32.9567 13.9536C33.2857 14.3108 33.5658 14.7104 33.7874 15.1437C34.1837 15.9136 34.3846 16.7476 34.3846 17.6185C34.3846 18.068 34.7495 18.4329 35.199 18.4329C35.6486 18.4329 36.0134 18.068 36.0134 17.6185C36.0134 16.5011 35.7452 15.387 35.2359 14.3988C34.946 13.8374 34.5822 13.3173 34.1555 12.8514ZM35.1979 19.9477C34.7484 19.9477 34.3835 20.3125 34.3835 20.7621V24.5985C34.3835 25.0481 34.7484 25.4129 35.1979 25.4129C35.6475 25.4129 36.0124 25.0481 36.0124 24.5985V20.7621C36.0124 20.3125 35.6475 19.9477 35.1979 19.9477ZM20.0248 4.43796C18.3906 4.43796 17.0615 5.76817 17.0615 7.40135C17.0615 9.03669 18.3917 10.3658 20.0248 10.3658C21.658 10.3658 22.9882 9.03561 22.9882 7.40135C22.9882 5.76817 21.6591 4.43796 20.0248 4.43796ZM20.0248 8.73699C19.2886 8.73699 18.6903 8.13649 18.6903 7.40135C18.6903 6.6662 19.2897 6.06679 20.0248 6.06679C20.76 6.06679 21.3594 6.66511 21.3594 7.40135C21.3594 8.13758 20.7611 8.73699 20.0248 8.73699ZM29.7598 6.58693L26.5803 6.58585C26.1775 3.3271 23.3911 0.795898 20.0259 0.795898C16.6575 0.795898 13.8711 3.3271 13.4683 6.58693H10.2888C4.74751 6.58693 0.23999 11.0944 0.23999 16.6357V48.0102C0.23999 53.3897 4.49232 57.7821 9.80991 58.0341L11.7591 61.3254C11.9068 61.5741 12.1717 61.725 12.4606 61.725H17.6489C17.8151 65.392 19.0226 68.5216 19.4157 69.4391C20.0162 70.8399 20.9826 73.6415 21.1183 77.2032H22.7602C22.6245 73.344 21.5625 70.3133 20.9131 68.7974C20.1801 67.0882 19.4026 64.4071 19.2658 61.7239H20.8968C21.0325 64.1606 21.7416 66.5941 22.4105 68.1545C23.1098 69.7866 24.2533 73.054 24.389 77.2032H26.0037C25.8647 72.7685 24.6551 69.2589 23.9069 67.5139C23.302 66.1022 22.6646 63.9152 22.53 61.7239H27.5859C27.8736 61.7239 28.1408 61.5719 28.2874 61.3243L30.2365 58.033C35.5541 57.7811 39.8064 53.3886 39.8064 48.0092V16.6357C39.8086 11.0955 35.3 6.58693 29.7598 6.58693ZM7.25047 50.3536C6.80092 50.3536 6.43606 49.9887 6.43606 49.5392C6.43606 49.0896 6.80092 48.7248 7.25047 48.7248H12.4084C12.858 48.7248 13.2228 49.0896 13.2228 49.5392C13.2228 49.9887 12.858 50.3536 12.4084 50.3536H7.25047ZM7.25047 37.7204H12.4084C12.858 37.7204 13.2228 38.0852 13.2228 38.5348C13.2228 38.9844 12.858 39.3492 12.4084 39.3492H7.25047C6.80092 39.3492 6.43606 38.9844 6.43606 38.5348C6.43606 38.0852 6.80092 37.7204 7.25047 37.7204ZM6.43606 33.0326C6.43606 32.5831 6.80092 32.2182 7.25047 32.2182H12.4084C12.858 32.2182 13.2228 32.5831 13.2228 33.0326C13.2228 33.4822 12.858 33.847 12.4084 33.847H7.25047C6.80092 33.847 6.43606 33.4822 6.43606 33.0326ZM7.25047 43.2226H12.4084C12.858 43.2226 13.2228 43.5874 13.2228 44.037C13.2228 44.4865 12.858 44.8514 12.4084 44.8514H7.25047C6.80092 44.8514 6.43606 44.4865 6.43606 44.037C6.43606 43.5874 6.80092 43.2226 7.25047 43.2226ZM27.1233 60.0973H12.9253L11.7189 58.059H28.3319L27.1233 60.0973ZM38.1798 30.167H1.86882V16.6357C1.86882 11.9936 5.64662 8.21576 10.2888 8.21576L14.2327 8.21468C14.6823 8.21468 15.0471 7.84982 15.0471 7.40026C15.0471 4.65731 17.2808 2.42473 20.0259 2.42473C22.7689 2.42473 25.0015 4.65731 25.0015 7.40135C25.0015 7.8509 25.3663 8.21576 25.8159 8.21576H29.7598C34.402 8.21576 38.1798 11.9936 38.1798 16.6357V30.167Z" fill="#FF0000"/>
</g>
</g>
</g>
</g>
<defs>
<clipPath id="clip0_504_4">
<rect width="395.52" height="76.4073" fill="white" transform="translate(0.23999 0.795898)"/>
</clipPath>
<clipPath id="clip1_504_4">
<rect width="395.52" height="76.4073" fill="white" transform="translate(0.23999 0.795898)"/>
</clipPath>
<clipPath id="clip2_504_4">
<rect width="346.904" height="55.2875" fill="white" transform="translate(48.8555 11.3555)"/>
</clipPath>
<clipPath id="clip3_504_4">
<rect width="346.904" height="55.2875" fill="white" transform="translate(48.8555 11.3555)"/>
</clipPath>
<clipPath id="clip4_504_4">
<rect width="346.904" height="38.3313" fill="white" transform="translate(48.8555 11.3555)"/>
</clipPath>
<clipPath id="clip5_504_4">
<rect width="346.904" height="38.3313" fill="white" transform="translate(48.8555 11.3555)"/>
</clipPath>
<clipPath id="clip6_504_4">
<rect width="277.524" height="7.90714" fill="white" transform="translate(83.5459 58.7354)"/>
</clipPath>
<clipPath id="clip7_504_4">
<rect width="277.524" height="7.90714" fill="white" transform="translate(83.5459 58.7354)"/>
</clipPath>
<clipPath id="clip8_504_4">
<rect width="39.5664" height="76.4073" fill="white" transform="translate(0.23999 0.795898)"/>
</clipPath>
<clipPath id="clip9_504_4">
<rect width="39.5664" height="76.4073" fill="white" transform="translate(0.23999 0.795898)"/>
</clipPath>
</defs>
</svg>
